<svg width="350" height="96" viewBox="0 0 350 96" fill="none" xmlns="http://www.w3.org/2000/svg">
<path fill-rule="evenodd" clip-rule="evenodd" d="M273.166 0.788046V93.3271C273.166 93.7024 272.785 94.1152 272.366 94.1152H263.414C263.033 94.1152 262.614 93.7399 262.614 93.3271V82.8199C258.005 90.7378 251.148 95.6537 239.682 95.6537C223.759 95.6537 211.874 82.0318 211.874 61.5051C211.874 41.1285 224.407 27.6191 241.396 27.6191C250.996 27.6191 258.005 32.0472 261.967 38.3891V0.788046C261.967 0.412786 262.348 0 262.767 0H272.366C272.747 0 273.166 0.37526 273.166 0.788046ZM242.73 85.897C254.462 85.897 262.233 76.8157 262.233 62.6684V60.3418C262.233 46.3071 254.577 37.3759 243.149 37.3759C231.149 37.3759 223.797 46.4572 223.797 61.5051C223.759 76.553 230.997 85.897 242.73 85.897ZM155.268 84.7337C154.734 84.7337 154.468 84.9964 154.468 85.5217V93.3271C154.468 93.8525 154.734 94.1152 155.268 94.1152H205.589C206.122 94.1152 206.389 93.8525 206.389 93.3271V85.5217C206.389 84.9964 205.97 84.7337 205.589 84.7337H186.085V29.9833C186.085 29.4579 185.666 29.1952 185.285 29.1952H157.896C157.363 29.1952 157.096 29.4579 157.096 29.9833V37.7511C157.096 38.2765 157.515 38.5392 157.896 38.5392H174.886V84.7337H155.268ZM172.905 14.9353H185.818C186.352 14.9353 186.618 14.6727 186.618 14.1473V1.42599C186.618 0.900626 186.352 0.637944 185.818 0.637944H172.905C172.372 0.637944 172.105 0.900626 172.105 1.42599V14.1473C172.105 14.6727 172.372 14.9353 172.905 14.9353ZM0 53.0242V44.9937C0 18.8756 11.1994 1.95135 33.3315 1.95135C55.5779 1.95135 66.7773 18.8756 66.7773 44.9561V52.9867C66.7773 79.0673 55.5779 95.9915 33.3696 95.9915C11.1994 96.029 0 79.1048 0 53.0242ZM51.8448 24.5795L12.6539 65.93L12.6469 65.8957C11.9232 62.068 11.5422 57.79 11.5422 52.9867V44.9561C11.5422 23.7164 19.1608 11.7832 33.4077 11.7832C42.0929 11.7832 48.3021 16.2863 51.8448 24.5795ZM55.197 53.0242V44.9937C55.197 40.7908 54.8541 36.8881 54.2827 33.4357L15.4277 74.5266C19.0466 82.1069 25.1034 86.1972 33.4077 86.1972C47.6164 86.1597 55.197 74.2264 55.197 53.0242ZM134.697 29.1202L141.135 35.0868C141.478 35.3495 141.478 35.8749 141.211 36.1751L116.984 61.6177L141.211 87.0603C141.478 87.398 141.478 87.8859 141.135 88.1486L134.697 94.1152C134.355 94.3779 133.859 94.3779 133.593 94.0402L110.013 69.0478L86.3572 94.0777C86.0905 94.4154 85.5572 94.4154 85.2525 94.1527L78.7766 88.1861C78.4338 87.9234 78.4338 87.3981 78.7004 87.0978L102.928 61.6552L78.7004 36.2126C78.4338 35.8749 78.4338 35.387 78.7766 35.1243L85.2144 29.1577C85.5572 28.895 86.0524 28.895 86.3191 29.2328L109.975 54.2626L133.555 29.2328C133.859 28.8575 134.393 28.8575 134.697 29.1202ZM302.193 64.5072H350V58.5405C350 42.592 341.696 27.6567 321.544 27.6567C303.107 27.6567 290.727 40.5281 290.727 60.3793C290.727 81.6566 301.66 95.6913 322.344 95.6913C334.496 95.6913 343.029 90.3626 349.238 80.3807C349.619 79.8553 349.505 79.3299 348.971 79.0673L341.048 74.6392C340.515 74.3765 340.134 74.4891 339.867 75.0145C336.286 81.0186 330.649 85.9345 321.811 85.9345C309.697 85.9345 302.46 76.7031 302.193 64.5072ZM321.049 36.2126C332.896 36.2126 338.686 45.0312 338.686 55.4259H302.193C302.46 45.9318 309.05 36.2126 321.049 36.2126Z" fill="black"/>
</svg>
